<svg xmlns="http://www.w3.org/2000/svg" width="46" height="46" viewBox="0 0 46 46">
  <g id="Group_8829" data-name="Group 8829" transform="translate(-1372 -896)">
    <g id="Ellipse_371" data-name="Ellipse 371" transform="translate(1372 896)" fill="#fff" stroke="#707070" stroke-width="1">
      <circle cx="23" cy="23" r="23" stroke="none"/>
      <circle cx="23" cy="23" r="22.5" fill="none"/>
    </g>
    <path id="Icon_awesome-linkedin-in" data-name="Icon awesome-linkedin-in" d="M3.749,16.75H.277V5.567H3.749ZM2.011,4.042a2.021,2.021,0,1,1,2.011-2.03A2.028,2.028,0,0,1,2.011,4.042ZM16.746,16.75H13.281V11.306c0-1.3-.026-2.961-1.805-2.961-1.805,0-2.082,1.41-2.082,2.868V16.75H5.924V5.567h3.33V7.093H9.3a3.649,3.649,0,0,1,3.286-1.806c3.514,0,4.16,2.314,4.16,5.32V16.75Z" transform="translate(1387 911)"/>
  </g>
</svg>
