<svg xmlns="http://www.w3.org/2000/svg" width="46" height="46" viewBox="0 0 46 46">
  <g id="Group_8830" data-name="Group 8830" transform="translate(-1428 -896)">
    <g id="Ellipse_372" data-name="Ellipse 372" transform="translate(1428 896)" fill="#fff" stroke="#707070" stroke-width="1">
      <circle cx="23" cy="23" r="23" stroke="none"/>
      <circle cx="23" cy="23" r="22.5" fill="none"/>
    </g>
    <path id="Icon_ionic-logo-twitter" data-name="Icon ionic-logo-twitter" d="M20.3,6.321a7.836,7.836,0,0,1-2.226.612,3.889,3.889,0,0,0,1.705-2.146,7.7,7.7,0,0,1-2.462.941,3.875,3.875,0,0,0-6.705,2.65,3.794,3.794,0,0,0,.1.885,10.984,10.984,0,0,1-7.99-4.055,3.883,3.883,0,0,0,1.2,5.18A3.785,3.785,0,0,1,2.17,9.9v.048a3.879,3.879,0,0,0,3.11,3.8,3.9,3.9,0,0,1-1.021.136,3.656,3.656,0,0,1-.729-.072,3.882,3.882,0,0,0,3.623,2.694,7.771,7.771,0,0,1-4.816,1.661,7.856,7.856,0,0,1-.925-.056,10.833,10.833,0,0,0,5.933,1.753A10.962,10.962,0,0,0,18.383,8.831c0-.168,0-.336-.012-.5A7.89,7.89,0,0,0,20.3,6.321Z" transform="translate(1440.587 906.5)"/>
  </g>
</svg>
