<svg xmlns="http://www.w3.org/2000/svg" width="46" height="46" viewBox="0 0 46 46">
  <g id="Group_8831" data-name="Group 8831" transform="translate(-1484 -895)">
    <g id="Ellipse_373" data-name="Ellipse 373" transform="translate(1484 895)" fill="#fff" stroke="#707070" stroke-width="1">
      <circle cx="23" cy="23" r="23" stroke="none"/>
      <circle cx="23" cy="23" r="22.5" fill="none"/>
    </g>
    <path id="Icon_awesome-youtube" data-name="Icon awesome-youtube" d="M21.763,6.827a2.658,2.658,0,0,0-1.87-1.882C18.243,4.5,11.628,4.5,11.628,4.5s-6.615,0-8.265.445a2.658,2.658,0,0,0-1.87,1.882,27.885,27.885,0,0,0-.442,5.125,27.885,27.885,0,0,0,.442,5.125,2.619,2.619,0,0,0,1.87,1.852c1.65.445,8.265.445,8.265.445s6.615,0,8.265-.445a2.619,2.619,0,0,0,1.87-1.852,27.885,27.885,0,0,0,.442-5.125,27.885,27.885,0,0,0-.442-5.125ZM9.464,15.1V8.807l5.529,3.146L9.464,15.1Z" transform="translate(1494.95 906.5)"/>
  </g>
</svg>
