<svg width="739" height="986" viewBox="0 0 739 986" fill="none" xmlns="http://www.w3.org/2000/svg">
<g clip-path="url(#clip0_2_791)">
<g opacity="0.1">
<path fill-rule="evenodd" clip-rule="evenodd" d="M496.5 534.586C542.555 535.736 562.637 607.51 600.182 639.74C635.276 669.867 682.825 676.191 709.264 717.231C738.87 763.186 765.8 822.762 754.572 879.386C743.366 935.904 686.22 956.259 653.434 998.799C622.217 1039.3 607.801 1098.8 566.672 1123.19C522.815 1149.19 470.23 1152.06 423.41 1135.19C376.684 1118.36 342.801 1073.26 309.299 1030.47C274.402 985.905 233.581 942.172 224.943 881.728C216.231 820.756 230.735 753.902 262.896 705.738C292.827 660.911 349.259 664.361 390.026 634.493C429.247 605.757 450.636 533.441 496.5 534.586Z" stroke="#193C34" stroke-width="2.64683"/>
<path fill-rule="evenodd" clip-rule="evenodd" d="M494.841 604.903C530.33 605.789 545.805 661.051 574.737 685.866C601.78 709.062 638.42 713.932 658.795 745.53C681.608 780.913 702.36 826.783 693.708 870.381C685.073 913.897 641.037 929.569 615.773 962.322C591.717 993.508 580.608 1039.32 548.915 1058.1C515.119 1078.12 474.598 1080.32 438.519 1067.34C402.513 1054.38 376.403 1019.65 350.587 986.709C323.695 952.395 292.239 918.723 285.583 872.184C278.869 825.239 290.046 773.765 314.829 736.681C337.893 702.167 381.379 704.823 412.793 681.826C443.017 659.701 459.499 604.021 494.841 604.903Z" stroke="#193C34" stroke-width="2.64683"/>
<path fill-rule="evenodd" clip-rule="evenodd" d="M493.334 673.4C518.536 674.028 529.525 713.198 550.071 730.788C569.276 747.229 595.296 750.681 609.764 773.079C625.965 798.158 640.702 830.672 634.558 861.574C628.425 892.419 597.154 903.527 579.212 926.743C562.13 948.848 554.24 981.319 531.734 994.629C507.734 1008.82 478.958 1010.38 453.337 1001.18C427.767 991.992 409.225 967.379 390.892 944.029C371.795 919.707 349.456 895.839 344.73 862.852C339.962 829.577 347.899 793.092 365.499 766.806C381.878 742.342 412.759 744.225 435.068 727.924C456.531 712.242 468.235 672.775 493.334 673.4Z" stroke="#193C34" stroke-width="2.64683"/>
<path fill-rule="evenodd" clip-rule="evenodd" d="M491.834 741.913C506.621 742.283 513.069 765.361 525.124 775.725C536.392 785.412 551.659 787.446 560.148 800.642C569.654 815.419 578.3 834.575 574.695 852.783C571.097 870.956 552.749 877.501 542.222 891.18C532.199 904.204 527.57 923.335 514.365 931.177C500.283 939.539 483.399 940.46 468.367 935.036C453.364 929.624 442.485 915.122 431.728 901.364C420.523 887.034 407.417 872.971 404.643 853.536C401.846 833.93 406.503 812.434 416.829 796.946C426.439 782.532 444.558 783.642 457.648 774.038C470.241 764.798 477.108 741.545 491.834 741.913Z" stroke="#193C34" stroke-width="2.64683"/>
<path fill-rule="evenodd" clip-rule="evenodd" d="M226.005 107.654C264.406 110.938 301.892 103.898 338.913 116.651C387.333 133.33 446.204 141.088 472.848 192.684C499.472 244.243 490.902 315.773 470.389 371.258C451.663 421.909 398.951 436.449 367.698 477.099C338.018 515.703 335.238 591.668 292.559 602.558C248.96 613.683 219.946 544.27 178.197 525.454C140.893 508.641 95.2859 527.667 63.202 499.189C28.8376 468.686 -5.49954 418.888 0.738946 367.938C7.26388 314.648 74.673 304.581 93.0409 255.491C111.54 206.05 69.281 133.168 102.331 96.4209C133.374 61.9059 183.915 104.055 226.005 107.654Z" stroke="#193C34" stroke-width="2.64683"/>
<path fill-rule="evenodd" clip-rule="evenodd" d="M230.706 165.594C259.633 168.072 287.871 162.76 315.758 172.384C352.232 184.971 396.578 190.825 416.648 229.763C436.704 268.672 430.248 322.652 414.797 364.523C400.691 402.747 360.984 413.719 337.441 444.396C315.084 473.529 312.989 530.856 280.841 539.074C247.998 547.47 226.142 495.086 194.694 480.887C166.593 468.199 132.238 482.557 108.07 461.066C82.1838 438.047 56.3182 400.468 61.0176 362.018C65.9327 321.803 116.711 314.206 130.547 277.16C144.482 239.849 112.649 184.849 137.545 157.117C160.929 131.071 199 162.878 230.706 165.594Z" stroke="#193C34" stroke-width="2.64683"/>
<path fill-rule="evenodd" clip-rule="evenodd" d="M775.279 104.566C826.114 105.701 841.668 193.108 870.364 243.796C888.63 276.061 894.265 314.485 912.432 346.832C935.897 388.614 993.278 409.621 991.832 460.076C990.435 508.843 933.227 523.201 906.335 559.618C879.986 595.301 873.926 658.515 835.797 671.381C797.597 684.27 763.815 638.584 727.242 620.047C695.403 603.908 660.984 596.658 634.784 569.495C605.795 539.442 586.133 500.277 570.901 457.962C551.314 403.55 508.938 340.443 533.951 289.377C559.893 236.415 634.877 272.453 677.908 239.499C720.491 206.889 724.865 103.44 775.279 104.566Z" stroke="#193C34" stroke-width="2.64683"/>
<path fill-rule="evenodd" clip-rule="evenodd" d="M770.238 194.712C804.957 195.486 815.581 255.164 835.179 289.771C847.655 311.8 851.504 338.034 863.912 360.119C879.938 388.645 919.129 402.988 918.141 437.436C917.187 470.731 878.115 480.534 859.748 505.398C841.751 529.761 837.612 572.92 811.571 581.704C785.48 590.504 762.408 559.312 737.429 546.656C715.683 535.637 692.176 530.687 674.281 512.142C654.482 491.623 641.053 464.883 630.649 435.993C617.272 398.842 588.329 355.757 605.413 320.891C623.131 284.731 674.344 309.336 703.734 286.837C732.818 264.572 735.805 193.943 770.238 194.712Z" stroke="#193C34" stroke-width="2.64683"/>
<path fill-rule="evenodd" clip-rule="evenodd" d="M764.774 290.271C782.378 290.665 787.764 320.988 797.702 338.572C804.027 349.766 805.979 363.096 812.27 374.318C820.396 388.813 840.268 396.101 839.767 413.604C839.283 430.522 819.472 435.503 810.159 448.137C801.034 460.516 798.935 482.447 785.731 486.91C772.502 491.381 760.804 475.532 748.138 469.101C737.112 463.502 725.193 460.987 716.12 451.564C706.081 441.138 699.271 427.551 693.996 412.871C687.213 393.994 672.538 372.101 681.2 354.385C690.184 336.012 716.152 348.514 731.054 337.082C745.8 325.769 747.315 289.881 764.774 290.271Z" stroke="#193C34" stroke-width="2.64683"/>
<path fill-rule="evenodd" clip-rule="evenodd" d="M496.5 534.523C542.555 535.672 562.637 607.386 600.182 639.59C635.276 669.691 682.825 676.011 709.264 717.017C738.87 762.933 765.8 822.459 754.572 879.037C743.366 935.507 686.22 955.845 653.434 998.35C622.217 1038.82 607.801 1098.27 566.672 1122.64C522.815 1148.62 470.23 1151.48 423.41 1134.63C376.684 1117.81 342.801 1072.75 309.299 1030C274.402 985.466 233.581 941.77 224.943 881.376C216.231 820.455 230.735 753.657 262.896 705.532C292.827 660.743 349.259 664.19 390.026 634.347C429.247 605.636 450.636 533.379 496.5 534.523Z" stroke="white" stroke-width="2.64683"/>
<path fill-rule="evenodd" clip-rule="evenodd" d="M494.841 604.778C530.33 605.663 545.805 660.879 574.737 685.674C601.78 708.85 638.42 713.716 658.795 745.288C681.608 780.641 702.36 826.473 693.708 870.035C685.073 913.514 641.037 929.173 615.773 961.9C591.717 993.06 580.608 1038.83 548.915 1057.59C515.119 1077.6 474.598 1079.8 438.519 1066.83C402.513 1053.88 376.403 1019.18 350.587 986.266C323.695 951.98 292.239 918.336 285.583 871.836C278.869 824.93 290.046 773.499 314.829 736.446C337.893 701.961 381.379 704.615 412.793 681.637C443.017 659.531 459.499 603.897 494.841 604.778Z" stroke="white" stroke-width="2.64683"/>
<path fill-rule="evenodd" clip-rule="evenodd" d="M493.334 673.228C518.536 673.855 529.525 712.993 550.071 730.568C569.276 746.996 595.296 750.445 609.764 772.824C625.965 797.882 640.702 830.369 634.558 861.245C628.425 892.064 597.154 903.164 579.212 926.36C562.13 948.447 554.24 980.891 531.734 994.189C507.734 1008.37 478.958 1009.93 453.337 1000.73C427.767 991.555 409.225 966.962 390.892 943.631C371.795 919.329 349.456 895.482 344.73 862.522C339.962 829.275 347.899 792.82 365.499 766.556C381.878 742.113 412.759 743.994 435.068 727.707C456.531 712.038 468.235 672.604 493.334 673.228Z" stroke="white" stroke-width="2.64683"/>
<path fill-rule="evenodd" clip-rule="evenodd" d="M491.834 741.671C506.621 742.04 513.069 765.1 525.124 775.455C536.392 785.134 551.659 787.166 560.148 800.351C569.654 815.115 578.3 834.256 574.695 852.448C571.097 870.606 552.749 877.146 542.222 890.813C532.199 903.826 527.57 922.942 514.365 930.777C500.283 939.132 483.399 940.052 468.367 934.633C453.364 929.225 442.485 914.735 431.728 900.989C420.523 886.671 407.417 872.62 404.643 853.201C401.846 833.611 406.503 812.133 416.829 796.658C426.439 782.256 444.558 783.365 457.648 773.769C470.241 764.537 477.108 741.303 491.834 741.671Z" stroke="white" stroke-width="2.64683"/>
<path fill-rule="evenodd" clip-rule="evenodd" d="M226.005 107.938C264.406 111.219 301.892 104.185 338.913 116.927C387.333 133.593 446.204 141.344 472.848 192.898C499.472 244.414 490.902 315.884 470.389 371.322C451.663 421.931 398.951 436.459 367.698 477.075C338.018 515.647 335.238 591.549 292.559 602.43C248.96 613.546 219.946 544.19 178.197 525.389C140.893 508.591 95.2859 527.601 63.202 499.146C28.8376 468.669 -5.49954 418.913 0.738946 368.005C7.26388 314.76 74.673 304.701 93.0409 255.652C111.54 206.252 69.281 133.431 102.331 96.7144C133.374 62.2281 183.915 104.342 226.005 107.938Z" stroke="white" stroke-width="2.64683"/>
<path fill-rule="evenodd" clip-rule="evenodd" d="M230.706 165.837C259.633 168.313 287.871 163.004 315.758 172.62C352.232 185.197 396.578 191.047 416.648 229.951C436.704 268.828 430.248 322.763 414.797 364.6C400.691 402.792 360.984 413.755 337.441 444.406C315.084 473.515 312.989 530.794 280.841 539.005C247.998 547.394 226.142 495.054 194.694 480.866C166.593 468.189 132.238 482.535 108.07 461.062C82.1838 438.063 56.3182 400.514 61.0176 362.096C65.9327 321.915 116.711 314.324 130.547 277.309C144.482 240.03 112.649 185.075 137.545 157.367C160.929 131.342 199 163.123 230.706 165.837Z" stroke="white" stroke-width="2.64683"/>
<path fill-rule="evenodd" clip-rule="evenodd" d="M775.279 104.863C826.114 105.997 841.668 193.331 870.364 243.976C888.63 276.215 894.265 314.607 912.432 346.927C935.897 388.674 993.278 409.664 991.832 460.077C990.435 508.803 933.227 523.149 906.335 559.536C879.986 595.189 873.926 658.351 835.797 671.205C797.597 684.084 763.815 638.436 727.242 619.914C695.403 603.789 660.984 596.545 634.784 569.405C605.795 539.376 586.133 500.244 570.901 457.965C551.314 403.597 508.938 340.544 533.951 289.52C559.893 236.602 634.877 272.61 677.908 239.683C720.491 207.1 724.865 103.738 775.279 104.863Z" stroke="white" stroke-width="2.64683"/>
<path fill-rule="evenodd" clip-rule="evenodd" d="M770.238 194.938C804.957 195.712 815.581 255.34 835.179 289.918C847.655 311.929 851.504 338.141 863.912 360.207C879.938 388.71 919.129 403.041 918.141 437.46C917.187 470.728 878.115 480.523 859.748 505.366C841.751 529.708 837.612 572.832 811.571 581.608C785.48 590.401 762.408 559.235 737.429 546.589C715.683 535.58 692.176 530.634 674.281 512.104C654.482 491.602 641.053 464.884 630.649 436.018C617.272 398.899 588.329 355.849 605.413 321.013C623.131 284.883 674.344 309.467 703.734 286.987C732.818 264.741 735.805 194.17 770.238 194.938Z" stroke="white" stroke-width="2.64683"/>
<path fill-rule="evenodd" clip-rule="evenodd" d="M764.774 290.404C782.378 290.797 787.764 321.095 797.702 338.665C804.027 349.849 805.979 363.168 812.27 374.381C820.396 388.863 840.268 396.145 839.767 413.634C839.283 430.538 819.472 435.515 810.159 448.139C801.034 460.507 798.935 482.419 785.731 486.879C772.502 491.347 760.804 475.51 748.138 469.085C737.112 463.491 725.193 460.978 716.12 451.562C706.081 441.145 699.271 427.569 693.996 412.902C687.213 394.04 672.538 372.166 681.2 354.465C690.184 336.106 716.152 348.598 731.054 337.176C745.8 325.872 747.315 290.014 764.774 290.404Z" stroke="white" stroke-width="2.64683"/>
</g>
</g>
<defs>
<clipPath id="clip0_2_791">
<rect width="739" height="986" fill="white"/>
</clipPath>
</defs>
</svg>
