<?xml version="1.0" encoding="UTF-8"?>
<!DOCTYPE svg PUBLIC "-//W3C//DTD SVG 1.1//EN" "http://www.w3.org/Graphics/SVG/1.1/DTD/svg11.dtd">
<!-- Creator: CorelDRAW X7 -->
<svg xmlns="http://www.w3.org/2000/svg" xml:space="preserve" width="137.54mm" height="41.0499mm" version="1.1" style="shape-rendering:geometricPrecision; text-rendering:geometricPrecision; image-rendering:optimizeQuality; fill-rule:evenodd; clip-rule:evenodd"
viewBox="0 0 13754 4105"
 xmlns:xlink="http://www.w3.org/1999/xlink">
 <defs>
  <style type="text/css">
   <![CDATA[
    .fil1 {fill:#EBECEC}
    .fil3 {fill:#FCFDFE}
    .fil4 {fill:#232021}
    .fil2 {fill:url(#id0)}
    .fil0 {fill:url(#id1)}
   ]]>
  </style>
  <linearGradient id="id0" gradientUnits="userSpaceOnUse" x1="2039.44" y1="3220.91" x2="2039.44" y2="3840.91">
   <stop offset="0" style="stop-opacity:1; stop-color:#F10877"/>
   <stop offset="1" style="stop-opacity:1; stop-color:#9C02DF"/>
  </linearGradient>
  <linearGradient id="id1" gradientUnits="userSpaceOnUse" xlink:href="#id0" x1="9219.48" y1="1227.49" x2="9219.48" y2="2877.51">
  </linearGradient>
 </defs>
 <g id="Layer_x0020_1">
  <metadata id="CorelCorpID_0Corel-Layer"/>
  <path class="fil0" d="M8111 990l0 72 -596 0 0 -72 0 -524 596 0 0 524zm-596 2613l0 -2241 596 0 0 2241 -596 0zm-961 -2241l-802 2241 623 0 815 -2241 -636 0zm-1233 0l432 1205 -313 872 -755 -2077 636 0zm8433 0l0 2241 -587 0 0 -1089 0 -34c0,-87 -17,-168 -49,-243 -33,-75 -79,-140 -137,-197 -58,-58 -126,-102 -202,-133 -76,-32 -156,-47 -240,-47 -86,0 -167,16 -242,49 -74,33 -141,78 -199,133 -58,55 -104,121 -137,198 -33,76 -49,158 -49,245 0,84 16,164 49,238 33,76 79,141 137,198 58,57 125,103 199,135 75,33 156,50 242,50 93,0 172,-17 238,-50l4 0 0 9 0 0 0 523c-97,34 -204,51 -322,51 -159,0 -308,-30 -448,-90 -141,-59 -263,-142 -368,-246 -105,-105 -187,-227 -249,-368 -61,-140 -92,-289 -92,-448 0,-161 31,-312 92,-452 62,-141 144,-263 249,-368 105,-105 227,-187 368,-249 140,-61 289,-92 448,-92 155,0 291,30 408,87 116,58 216,141 300,251l0 -302 587 0zm-3933 -27c159,0 308,30 448,90 141,60 263,142 368,247 104,104 187,227 249,367 61,140 91,290 91,448 0,159 -30,308 -91,448 -62,141 -145,263 -249,368 -105,104 -227,187 -368,246 -140,60 -289,90 -448,90 -308,0 -542,-113 -703,-341l0 305 -592 0 0 -3137 596 0 0 532 0 1287 0 202c0,87 16,168 49,242 33,75 77,140 133,195 55,55 121,100 197,132 76,33 157,50 244,50 84,0 164,-17 240,-50 76,-32 142,-77 197,-132 55,-55 99,-120 132,-195 33,-74 49,-155 49,-242 0,-86 -16,-167 -49,-242 -33,-74 -77,-140 -132,-197 -55,-57 -121,-101 -197,-132 -76,-32 -156,-47 -240,-47 -79,0 -158,16 -238,47l0 -533c95,-32 200,-48 314,-48z"/>
  <g id="_558998392">
   <circle class="fil1" cx="2052" cy="2052" r="2052"/>
   <path class="fil2" d="M3015 3866c-287,152 -615,239 -963,239 -359,0 -696,-92 -990,-254l-53 -497c-23,-213 182,-444 389,-389 428,115 855,109 1283,0 207,-53 412,176 389,389l-55 512zm-1135 -598l319 0c30,0 54,24 54,54l0 0c0,30 -24,55 -54,55l-319 0c-30,0 -54,-25 -54,-55l0 0c0,-30 24,-54 54,-54zm0 513l319 0c30,0 54,24 54,54l0 0c0,30 -24,55 -54,55l-319 0c-30,0 -54,-25 -54,-55l0 0c0,-30 24,-54 54,-54zm0 -257l319 0c30,0 54,25 54,55l0 0c0,30 -24,54 -54,54l-319 0c-30,0 -54,-24 -54,-54l0 0c0,-30 24,-55 54,-55z"/>
   <path class="fil3" d="M1842 3039c53,17 122,17 187,18 34,0 62,0 95,-5 50,-9 56,-9 72,-40l-29 -167c67,-32 177,-32 340,-111 112,-55 190,-118 253,-195 244,-300 135,-956 -19,-1047 -201,-118 -506,12 -781,-89 -56,-21 -98,-46 -142,-75 -55,-36 -85,-72 -139,-101 36,131 182,259 192,293 -141,5 -220,-35 -298,-102 -48,-41 -67,-65 -97,-107 -31,-44 -57,-95 -87,-129 -65,72 -132,346 -154,471 -35,195 -36,404 -11,603 59,464 306,521 650,626l-32 157z"/>
   <path class="fil4" d="M1411 2976c140,27 283,58 444,67l19 -161c-344,-105 -591,-162 -650,-626 -25,-199 -24,-408 11,-603 22,-125 89,-399 154,-471 30,34 56,85 87,129 30,42 49,66 97,107 78,67 157,107 298,102 -10,-34 -156,-162 -192,-293 54,29 84,65 139,101 44,29 86,54 142,75 275,101 580,-29 781,89 154,91 263,747 19,1047 -63,77 -141,140 -253,195 -163,79 -273,79 -340,111l29 167c79,70 504,22 611,-16 237,-69 361,-332 394,-628 31,-285 34,-710 -30,-972 -131,-545 -502,-940 -1156,-912 -625,28 -963,416 -1082,984 -125,598 -37,1368 478,1508z"/>
  </g>
 </g>
</svg>
