<?xml version="1.0" encoding="UTF-8"?>
<!DOCTYPE svg PUBLIC "-//W3C//DTD SVG 1.1//EN" "http://www.w3.org/Graphics/SVG/1.1/DTD/svg11.dtd">
<!-- Creator: CorelDRAW X7 -->
<svg xmlns="http://www.w3.org/2000/svg" xml:space="preserve" width="96.0265mm" height="96.0266mm" version="1.1" style="shape-rendering:geometricPrecision; text-rendering:geometricPrecision; image-rendering:optimizeQuality; fill-rule:evenodd; clip-rule:evenodd"
viewBox="0 0 9603 9603"
 xmlns:xlink="http://www.w3.org/1999/xlink">
 <defs>
  <style type="text/css">
   <![CDATA[
    .fil0 {fill:#EBECEC}
    .fil2 {fill:#FCFDFE}
    .fil3 {fill:#232021}
    .fil1 {fill:url(#id0)}
   ]]>
  </style>
  <linearGradient id="id0" gradientUnits="userSpaceOnUse" x1="4770.78" y1="7534.54" x2="4770.78" y2="8984.88">
   <stop offset="0" style="stop-opacity:1; stop-color:#F10877"/>
   <stop offset="1" style="stop-opacity:1; stop-color:#9C02DF"/>
  </linearGradient>
 </defs>
 <g id="Layer_x0020_1">
  <metadata id="CorelCorpID_0Corel-Layer"/>
  <g id="_573387720">
   <circle class="fil0" cx="4801" cy="4801" r="4801"/>
   <path class="fil1" d="M7053 9043c-672,357 -1438,560 -2252,560 -840,0 -1629,-216 -2316,-595l-125 -1162c-53,-497 427,-1039 910,-910 1001,268 2001,255 3001,0 485,-123 964,412 910,910l-128 1197zm-2655 -1398l745 0c70,0 127,57 127,127l0 0c0,70 -57,127 -127,127l-745 0c-70,0 -127,-57 -127,-127l0 0c0,-70 57,-127 127,-127zm0 1199l745 0c70,0 127,58 127,128l0 0c0,69 -57,127 -127,127l-745 0c-70,0 -127,-58 -127,-127l0 0c0,-70 57,-128 127,-128zm0 -599l745 0c70,0 127,57 127,127l0 0c0,70 -57,127 -127,127l-745 0c-70,0 -127,-57 -127,-127l0 0c0,-70 57,-127 127,-127z"/>
   <path class="fil2" d="M4308 7108c125,41 286,42 439,42 79,1 145,1 222,-12 116,-19 129,-19 168,-92l-69 -391c157,-75 414,-74 797,-260 260,-127 444,-275 591,-456 570,-700 317,-2235 -44,-2448 -471,-277 -1184,26 -1826,-210 -132,-48 -230,-106 -334,-174 -128,-85 -197,-169 -324,-236 84,305 425,606 449,686 -329,10 -514,-83 -696,-239 -113,-97 -157,-154 -228,-252 -73,-101 -133,-222 -204,-300 -153,168 -309,808 -361,1102 -81,454 -84,945 -25,1409 137,1087 716,1218 1520,1464l-75 367z"/>
   <path class="fil3" d="M3301 6961c327,64 662,137 1039,156l43 -376c-804,-246 -1383,-377 -1520,-1464 -59,-464 -56,-955 25,-1409 52,-294 208,-934 361,-1102 71,78 131,199 204,300 71,98 115,155 228,252 182,156 367,249 696,239 -24,-80 -365,-381 -449,-686 127,67 196,151 324,236 104,68 202,126 334,174 642,236 1355,-67 1826,210 361,213 614,1748 44,2448 -147,181 -331,329 -591,456 -383,186 -640,185 -797,260l69 391c186,163 1179,52 1429,-38 554,-160 845,-776 921,-1468 73,-667 80,-1661 -68,-2275 -308,-1274 -1175,-2198 -2704,-2132 -1464,64 -2254,973 -2532,2302 -292,1398 -86,3200 1118,3526z"/>
  </g>
 </g>
</svg>
